<?xml version="1.0" encoding="UTF-8" standalone="no"?><!DOCTYPE svg PUBLIC "-//W3C//DTD SVG 1.1//EN" "http://www.w3.org/Graphics/SVG/1.1/DTD/svg11.dtd"><svg width="100%" height="100%" viewBox="0 0 3280 1724" version="1.1" xmlns="http://www.w3.org/2000/svg" xmlns:xlink="http://www.w3.org/1999/xlink" xml:space="preserve" xmlns:serif="http://www.serif.com/" style="fill-rule:evenodd;clip-rule:evenodd;stroke-linejoin:round;stroke-miterlimit:1.41421;"><g id="Logos"><g id="logo-5"><g id="logo-shape"><path id="logo-curve" d="M229.457,1625.78c-428.557,-125.008 -216.518,-1403.72 303.434,-1435.63c428.322,-26.288 881.468,-18.802 1196.1,-60.482c590.622,-78.24 914.476,-194.835 1226.69,-84.391c485.547,171.761 325.428,835.242 156.071,1148.45c-387.428,716.518 -2538.02,532.47 -2882.29,432.048Z"/></g><g id="logo-letters"><path id="letter-k" d="M1468.9,447.646c-51.062,3.321 -139.119,45.902 -264.172,127.745c-125.052,81.843 -238.515,168.14 -340.388,258.892c16.56,87.056 49.726,180.269 99.785,279.04c109.895,216.831 193.347,235.487 259.791,262.065c-216.236,54.843 -298.96,-94.967 -330.73,-144.58c-31.771,-49.612 -58.709,-105.347 -80.815,-167.205c-22.106,-61.858 -34.307,-111.14 -36.605,-147.847c-50.539,48.956 -93.852,97.04 -129.94,144.255c-14.808,19.391 -33.83,57.283 -57.067,113.677c-23.236,56.393 -36.075,95.686 -38.517,117.878c-2.442,22.193 4.215,46.85 4.358,53.951l-154.381,-19.128c36.453,-100.92 92.017,-222.139 175.024,-396.993c83.007,-174.853 154.082,-300.658 213.224,-377.413c0.089,-0.807 7.936,-10.932 23.542,-30.375c-67.994,6.024 -138.339,24.419 -211.036,55.185c-72.697,30.767 -116.628,64.67 -131.794,101.711c-1.064,2.473 -2.793,3.787 -5.186,3.943c-6.383,0.415 -8.997,-4.623 -7.843,-15.114c0.178,-1.614 4.568,-12.716 13.171,-33.305c8.603,-20.59 23.078,-42.363 43.427,-65.319c20.349,-22.955 43.068,-40.457 68.158,-52.504c40.87,-18.682 90.426,-29.916 148.668,-33.704l270.466,-17.587c-43.266,33.26 -97.797,104.107 -163.594,212.543c-65.797,108.436 -120.644,207.346 -164.542,296.731c37.862,-48.932 87.249,-103.621 148.161,-164.067c60.912,-60.446 125.547,-118.731 193.905,-174.854c68.358,-56.123 137.756,-103.701 208.193,-142.733c70.438,-39.032 130.589,-60.169 180.454,-63.412c49.865,-3.242 74.176,0.785 72.932,12.083c-0.444,4.035 -2.66,6.182 -6.649,6.441Z" style="fill:#fff;fill-rule:nonzero;stroke:#fff;stroke-width:45.83px;"/><path id="letter-u" d="M1683.56,830.068l60.177,-2.651c12.566,-0.817 20.571,-1.758 24.015,-2.824c-25.228,17.625 -65.124,75.953 -119.687,174.985c-54.564,99.033 -84.176,169.732 -88.838,212.099c-2.798,25.42 4.181,37.585 20.936,36.495c10.89,-0.708 26.552,-8.877 46.986,-24.507c20.434,-15.631 38.309,-32.567 53.624,-50.809c15.315,-18.241 32.12,-40.576 50.415,-67.004c18.295,-26.428 34.123,-49.33 47.484,-68.707c13.361,-19.377 20.879,-29.119 22.554,-29.228c5.026,-0.327 6.654,7.559 4.882,23.658c-1.771,16.1 -8.057,31.651 -18.857,46.655c-123.179,182.153 -219.535,275.49 -289.066,280.011c-46.913,3.051 -66.5,-30.588 -58.761,-100.917c2.425,-22.031 6.431,-43.323 12.02,-63.877c-91.148,117.816 -172.325,179.039 -243.532,183.669c-20.943,1.362 -36.928,-6.432 -47.955,-23.381c-11.026,-16.95 -14.628,-42.795 -10.805,-77.536c3.822,-34.741 22.286,-92.937 55.392,-174.59c33.105,-81.653 70.094,-149.467 110.966,-203.442c9.776,-13.255 19.644,-21.678 29.604,-25.27c9.961,-3.592 28.344,-6.26 55.152,-8.003l60.316,-3.922c-24.113,30.171 -51.021,70.619 -80.723,121.344c-68.064,119.68 -105.08,206.635 -111.047,260.864c-3.543,32.199 6.204,47.549 29.241,46.051c23.038,-1.498 52.944,-25.736 89.72,-72.715c36.775,-46.979 77.323,-107.453 121.643,-181.422c44.32,-73.969 69.925,-115.805 76.814,-125.507c36.404,-51.161 68.848,-77.667 97.33,-79.519Z" style="fill:#fff;fill-rule:nonzero;stroke:#fff;stroke-width:45.83px;"/><path id="letter-d" d="M2630.46,350.57c-33.889,25.278 -82.118,93.072 -144.687,203.381c-62.569,110.309 -119.844,226.043 -171.824,347.2c-51.98,121.158 -80.9,208.368 -86.761,261.629c-3.41,30.988 2.955,45.957 19.095,44.908c16.14,-1.05 33.321,-13.014 59.876,-35.893c26.555,-22.878 43.128,-47.194 144.593,-275.316c21.103,-47.445 -2.626,169.459 -92.307,282.012c-29.471,36.528 -59.73,70.975 -99.112,103.341c-39.381,32.366 -73.788,49.506 -103.22,51.42c-50.32,3.272 -71.27,-33.343 -62.852,-109.845c6.181,-56.167 27.886,-129.206 65.116,-219.119c-53.37,90.962 -111.633,170.706 -174.789,239.23c-63.156,68.524 -122.741,104.607 -178.758,108.249c-63.611,4.137 -90.515,-38.341 -80.711,-127.432c7.459,-67.786 29.503,-137.483 66.133,-209.089c36.63,-71.607 84.694,-133.621 144.193,-186.043c59.498,-52.422 120.816,-80.686 183.953,-84.792c63.137,-4.105 104.228,14.375 123.275,55.44c32.445,-54.989 66.508,-118.257 102.188,-189.801c35.68,-71.545 59.176,-118.021 70.487,-139.427c11.31,-21.407 19.634,-37.091 24.972,-47.053c5.338,-9.961 11.81,-19.516 19.415,-28.663c11.936,-14.237 25.448,-23.528 40.537,-27.875c15.089,-4.346 39.038,-7.826 71.846,-10.44c32.809,-2.614 52.589,-4.621 59.342,-6.022Zm-397.825,467.175c-9.475,-16.69 -27.505,-24.171 -54.089,-22.442c-42.724,2.778 -88.11,27.602 -136.157,74.473c-48.047,46.87 -88.296,99.963 -120.745,159.28c-32.45,59.316 -51.072,110.763 -55.868,154.34c-3.303,30.02 6.438,44.289 29.225,42.807c76.903,-5 189.448,-141.153 337.634,-408.458Z" style="fill:#fff;fill-rule:nonzero;stroke:#fff;stroke-width:45.83px;"/><path id="letter-o" d="M2850.06,933.611c-29.124,77.392 -72.441,145.543 -129.952,204.455c-57.511,58.911 -119.624,90.536 -186.34,94.874c-45.96,2.989 -78.587,-11.52 -97.88,-43.527c-19.294,-32.007 -26.015,-74.599 -20.163,-127.775c7.607,-69.13 32.699,-138.868 75.277,-209.216c46.128,-75.858 99.711,-130.29 160.75,-163.297c33.878,-18.042 68.361,-28.203 103.448,-30.485c46.949,-3.053 80.361,11.01 100.236,42.187c19.876,31.177 26.946,72.822 21.211,124.935c-3.803,34.564 -12.665,70.514 -26.587,107.849Zm-274.273,258.584c33.605,-2.185 67.972,-23.559 103.101,-64.12c35.13,-40.561 63.818,-88.359 86.066,-143.394c22.248,-55.034 35.8,-104.62 40.657,-148.756c4.856,-44.137 0.623,-79.235 -12.701,-105.294c-13.324,-26.06 -36.542,-38.013 -69.653,-35.86c-33.111,2.153 -66.881,22.563 -101.312,61.231c-34.43,38.669 -62.943,84.871 -85.539,138.609c-22.595,53.737 -36.526,104.535 -41.793,152.394c-5.266,47.859 -1.455,84.568 11.433,110.128c12.889,25.56 36.135,37.247 69.741,35.062Z" style="fill:#fff;fill-rule:nonzero;stroke:#fff;stroke-width:75px;stroke-linejoin:miter;stroke-miterlimit:3;"/></g></g></g></svg>